<svg width="26" height="26" viewBox="0 0 26 26" fill="none" xmlns="http://www.w3.org/2000/svg">
<path d="M13 10.8333C11.8083 10.8333 10.8333 11.8083 10.8333 13C10.8333 14.1917 11.8083 15.1667 13 15.1667C14.1916 15.1667 15.1666 14.1917 15.1666 13C15.1666 11.8083 14.1916 10.8333 13 10.8333ZM13 4.33333C11.8083 4.33333 10.8333 5.30833 10.8333 6.49999C10.8333 7.69166 11.8083 8.66666 13 8.66666C14.1916 8.66666 15.1666 7.69166 15.1666 6.49999C15.1666 5.30833 14.1916 4.33333 13 4.33333ZM13 17.3333C11.8083 17.3333 10.8333 18.3083 10.8333 19.5C10.8333 20.6917 11.8083 21.6667 13 21.6667C14.1916 21.6667 15.1666 20.6917 15.1666 19.5C15.1666 18.3083 14.1916 17.3333 13 17.3333Z" fill="#141529"/>
</svg>
