<svg width="16" height="16" viewBox="0 0 16 16" fill="none" xmlns="http://www.w3.org/2000/svg">
<path d="M12.8006 5.13705L7.80257 10.0091L2.80457 5.13705C2.71527 5.04983 2.59539 5.001 2.47057 5.001C2.34574 5.001 2.22586 5.04983 2.13657 5.13705C2.09333 5.17942 2.05898 5.22998 2.03553 5.28579C2.01208 5.3416 2 5.40152 2 5.46205C2 5.52259 2.01208 5.58251 2.03553 5.63832C2.05898 5.69412 2.09333 5.74469 2.13657 5.78705L7.45357 10.9711C7.54694 11.0621 7.67217 11.113 7.80257 11.113C7.93296 11.113 8.05819 11.0621 8.15157 10.9711L13.4686 5.78805C13.5121 5.74566 13.5467 5.69497 13.5704 5.63898C13.594 5.58298 13.6062 5.52283 13.6062 5.46205C13.6062 5.40128 13.594 5.34112 13.5704 5.28513C13.5467 5.22914 13.5121 5.17845 13.4686 5.13605C13.3793 5.04883 13.2594 5 13.1346 5C13.0097 5 12.8899 5.04883 12.8006 5.13605V5.13705Z" fill="white"/>
</svg>
