<svg width="50" height="50" viewBox="0 0 50 50" fill="none" xmlns="http://www.w3.org/2000/svg">
<g filter="url(#filter0_ii_2_199)">
<rect width="50" height="50" rx="10" fill="url(#paint0_linear_2_199)"/>
</g>
<circle cx="25" cy="25" r="15" fill="url(#paint1_linear_2_199)"/>
<circle cx="25" cy="25" r="13" fill="url(#paint2_linear_2_199)"/>
<path d="M29.6773 21.9231C29.7927 23.0897 29.373 23.9167 28.4184 24.4038C29.168 24.5833 29.7286 24.9135 30.1002 25.3942C30.4718 25.875 30.616 26.5609 30.5327 27.4519C30.4878 27.9071 30.3837 28.3077 30.2203 28.6538C30.057 29 29.8503 29.2853 29.6005 29.5096C29.3506 29.734 29.0398 29.9215 28.6682 30.0721C28.2966 30.2228 27.9074 30.3333 27.5005 30.4038C27.0937 30.4744 26.6276 30.5224 26.1022 30.5481V33H24.6222V30.5865C24.1096 30.5865 23.7188 30.5833 23.4497 30.5769V33H21.9697V30.5481C21.8543 30.5481 21.6813 30.5465 21.4507 30.5433C21.22 30.5401 21.0438 30.5385 20.9221 30.5385H19L19.2979 28.7788H20.3647C20.6851 28.7788 20.8709 28.6154 20.9221 28.2885V24.4231H21.0759C21.0374 24.4167 20.9862 24.4135 20.9221 24.4135V21.6538C20.8388 21.2179 20.5537 21 20.0668 21H19V19.4231L21.0374 19.4327C21.4475 19.4327 21.7582 19.4295 21.9697 19.4231V17H23.4497V19.375C23.9751 19.3622 24.3659 19.3558 24.6222 19.3558V17H26.1022V19.4231C26.6084 19.4679 27.0569 19.5401 27.4477 19.6394C27.8385 19.7388 28.2005 19.883 28.5337 20.0721C28.8668 20.2612 29.1311 20.5112 29.3266 20.8221C29.522 21.133 29.6389 21.5 29.6773 21.9231ZM27.6111 27.1635C27.6111 26.9327 27.563 26.7276 27.4669 26.5481C27.3708 26.3686 27.2523 26.2212 27.1113 26.1058C26.9704 25.9904 26.7862 25.8926 26.5587 25.8125C26.3313 25.7324 26.1214 25.6731 25.9292 25.6346C25.737 25.5962 25.4999 25.5673 25.218 25.5481C24.9361 25.5288 24.7151 25.5192 24.5549 25.5192C24.3947 25.5192 24.1881 25.5224 23.935 25.5288C23.6819 25.5353 23.5298 25.5385 23.4785 25.5385V28.7885C23.5298 28.7885 23.6483 28.7901 23.8341 28.7933C24.0199 28.7965 24.1737 28.7981 24.2954 28.7981C24.4172 28.7981 24.5869 28.7933 24.8048 28.7837C25.0226 28.774 25.21 28.7612 25.367 28.7452C25.524 28.7292 25.7066 28.7019 25.9148 28.6635C26.123 28.625 26.3008 28.5801 26.4482 28.5288C26.5956 28.4776 26.7477 28.4103 26.9047 28.3269C27.0617 28.2436 27.1882 28.1474 27.2843 28.0385C27.3804 27.9295 27.4589 27.8013 27.5198 27.6538C27.5806 27.5064 27.6111 27.3429 27.6111 27.1635ZM26.9287 22.5865C26.9287 22.375 26.8887 22.1875 26.8086 22.024C26.7285 21.8606 26.6308 21.726 26.5155 21.6202C26.4001 21.5144 26.2464 21.4247 26.0542 21.351C25.8619 21.2772 25.6858 21.2244 25.5256 21.1923C25.3654 21.1603 25.1684 21.1346 24.9345 21.1154C24.7007 21.0962 24.5149 21.0881 24.3771 21.0913C24.2394 21.0946 24.0664 21.0978 23.8581 21.101C23.6499 21.1042 23.5234 21.1058 23.4785 21.1058V24.0577C23.5106 24.0577 23.6211 24.0593 23.8101 24.0625C23.9991 24.0657 24.1481 24.0657 24.257 24.0625C24.3659 24.0593 24.5261 24.0529 24.7375 24.0433C24.9489 24.0337 25.1251 24.016 25.2661 23.9904C25.407 23.9647 25.572 23.9295 25.761 23.8846C25.95 23.8397 26.1054 23.7804 26.2271 23.7067C26.3489 23.633 26.4674 23.5465 26.5827 23.4471C26.6981 23.3478 26.7846 23.2244 26.8422 23.0769C26.8999 22.9295 26.9287 22.766 26.9287 22.5865Z" fill="url(#paint3_linear_2_199)"/>
<defs>
<filter id="filter0_ii_2_199" x="0" y="-2" width="50" height="54" filterUnits="userSpaceOnUse" color-interpolation-filters="sRGB">
<feFlood flood-opacity="0" result="BackgroundImageFix"/>
<feBlend mode="normal" in="SourceGraphic" in2="BackgroundImageFix" result="shape"/>
<feColorMatrix in="SourceAlpha" type="matrix" values="0 0 0 0 0 0 0 0 0 0 0 0 0 0 0 0 0 0 127 0" result="hardAlpha"/>
<feOffset dy="2"/>
<feGaussianBlur stdDeviation="4"/>
<feComposite in2="hardAlpha" operator="arithmetic" k2="-1" k3="1"/>
<feColorMatrix type="matrix" values="0 0 0 0 1 0 0 0 0 1 0 0 0 0 1 0 0 0 0.12 0"/>
<feBlend mode="normal" in2="shape" result="effect1_innerShadow_2_199"/>
<feColorMatrix in="SourceAlpha" type="matrix" values="0 0 0 0 0 0 0 0 0 0 0 0 0 0 0 0 0 0 127 0" result="hardAlpha"/>
<feOffset dy="-2"/>
<feGaussianBlur stdDeviation="4"/>
<feComposite in2="hardAlpha" operator="arithmetic" k2="-1" k3="1"/>
<feColorMatrix type="matrix" values="0 0 0 0 0 0 0 0 0 0 0 0 0 0 0 0 0 0 0.2 0"/>
<feBlend mode="normal" in2="effect1_innerShadow_2_199" result="effect2_innerShadow_2_199"/>
</filter>
<linearGradient id="paint0_linear_2_199" x1="25" y1="0" x2="25" y2="50" gradientUnits="userSpaceOnUse">
<stop stop-color="#43D5AE"/>
<stop offset="0.0001" stop-color="#7FFFEA"/>
<stop offset="1" stop-color="#43D5AE"/>
</linearGradient>
<linearGradient id="paint1_linear_2_199" x1="25" y1="10" x2="25" y2="40" gradientUnits="userSpaceOnUse">
<stop stop-color="#43D5AE"/>
<stop offset="1" stop-color="#7FFFEA"/>
</linearGradient>
<linearGradient id="paint2_linear_2_199" x1="25" y1="12" x2="25" y2="38" gradientUnits="userSpaceOnUse">
<stop stop-color="white" stop-opacity="0.69"/>
<stop offset="1" stop-color="white"/>
</linearGradient>
<linearGradient id="paint3_linear_2_199" x1="24.7778" y1="17" x2="24.7778" y2="33" gradientUnits="userSpaceOnUse">
<stop stop-color="#7FFFEA"/>
<stop offset="1" stop-color="#43D5AE"/>
</linearGradient>
</defs>
</svg>
