<svg width="50" height="50" viewBox="0 0 50 50" fill="none" xmlns="http://www.w3.org/2000/svg">
<g filter="url(#filter0_ii_2_59)">
<rect width="50" height="50" rx="10" fill="url(#paint0_linear_2_59)"/>
</g>
<circle cx="25" cy="25" r="15" fill="url(#paint1_linear_2_59)"/>
<circle cx="25" cy="25" r="13" fill="url(#paint2_linear_2_59)"/>
<path d="M21.3333 18.3333H28.6667C28.7702 18.3333 28.8722 18.3574 28.9648 18.4037C29.0574 18.45 29.1379 18.5172 29.2 18.6L31 21V31C31 31.1768 30.9298 31.3464 30.8047 31.4714C30.6797 31.5964 30.5101 31.6667 30.3333 31.6667H19.6667C19.4899 31.6667 19.3203 31.5964 19.1953 31.4714C19.0702 31.3464 19 31.1768 19 31V21L20.8 18.6C20.8621 18.5172 20.9426 18.45 21.0352 18.4037C21.1278 18.3574 21.2298 18.3333 21.3333 18.3333ZM29.3333 21L28.3333 19.6667H21.6667L20.6667 21H29.3333ZM23 23.6667H21.6667V25C21.6667 25.884 22.0179 26.7319 22.643 27.357C23.2681 27.9821 24.1159 28.3333 25 28.3333C25.8841 28.3333 26.7319 27.9821 27.357 27.357C27.9821 26.7319 28.3333 25.884 28.3333 25V23.6667H27V25C27 25.5304 26.7893 26.0391 26.4142 26.4142C26.0391 26.7893 25.5304 27 25 27C24.4696 27 23.9609 26.7893 23.5858 26.4142C23.2107 26.0391 23 25.5304 23 25V23.6667Z" fill="url(#paint3_linear_2_59)"/>
<defs>
<filter id="filter0_ii_2_59" x="0" y="-2" width="50" height="54" filterUnits="userSpaceOnUse" color-interpolation-filters="sRGB">
<feFlood flood-opacity="0" result="BackgroundImageFix"/>
<feBlend mode="normal" in="SourceGraphic" in2="BackgroundImageFix" result="shape"/>
<feColorMatrix in="SourceAlpha" type="matrix" values="0 0 0 0 0 0 0 0 0 0 0 0 0 0 0 0 0 0 127 0" result="hardAlpha"/>
<feOffset dy="2"/>
<feGaussianBlur stdDeviation="4"/>
<feComposite in2="hardAlpha" operator="arithmetic" k2="-1" k3="1"/>
<feColorMatrix type="matrix" values="0 0 0 0 1 0 0 0 0 1 0 0 0 0 1 0 0 0 0.12 0"/>
<feBlend mode="normal" in2="shape" result="effect1_innerShadow_2_59"/>
<feColorMatrix in="SourceAlpha" type="matrix" values="0 0 0 0 0 0 0 0 0 0 0 0 0 0 0 0 0 0 127 0" result="hardAlpha"/>
<feOffset dy="-2"/>
<feGaussianBlur stdDeviation="4"/>
<feComposite in2="hardAlpha" operator="arithmetic" k2="-1" k3="1"/>
<feColorMatrix type="matrix" values="0 0 0 0 0 0 0 0 0 0 0 0 0 0 0 0 0 0 0.2 0"/>
<feBlend mode="normal" in2="effect1_innerShadow_2_59" result="effect2_innerShadow_2_59"/>
</filter>
<linearGradient id="paint0_linear_2_59" x1="25" y1="0" x2="25" y2="60.625" gradientUnits="userSpaceOnUse">
<stop stop-color="#686DB1"/>
<stop offset="1" stop-color="#2B2E51"/>
</linearGradient>
<linearGradient id="paint1_linear_2_59" x1="25" y1="10" x2="25" y2="40" gradientUnits="userSpaceOnUse">
<stop stop-color="#2B2E51"/>
<stop offset="1" stop-color="#686DB1"/>
</linearGradient>
<linearGradient id="paint2_linear_2_59" x1="25" y1="12" x2="25" y2="38" gradientUnits="userSpaceOnUse">
<stop stop-color="white" stop-opacity="0.69"/>
<stop offset="1" stop-color="white"/>
</linearGradient>
<linearGradient id="paint3_linear_2_59" x1="25" y1="18.3333" x2="25" y2="31.6667" gradientUnits="userSpaceOnUse">
<stop stop-color="#686DB1"/>
<stop offset="1" stop-color="#2B2E51"/>
</linearGradient>
</defs>
</svg>
