<svg width="50" height="50" viewBox="0 0 50 50" fill="none" xmlns="http://www.w3.org/2000/svg">
<g filter="url(#filter0_ii_2_36)">
<rect width="50" height="50" rx="10" fill="url(#paint0_linear_2_36)"/>
</g>
<circle cx="25" cy="25" r="15" fill="url(#paint1_linear_2_36)"/>
<circle cx="25" cy="25" r="13" fill="url(#paint2_linear_2_36)"/>
<path d="M31.3333 24.3399V28.3362C31.3333 29.9895 29.9873 31.3333 28.3333 31.3333H26.6667V28.3354C26.6667 27.4177 25.9187 26.6715 25 26.6715C24.0813 26.6715 23.3333 27.4177 23.3333 28.3354V31.3333H21.6667C20.0127 31.3333 18.6667 29.9889 18.6667 28.3362V24.3399C18.6667 23.4282 19.0747 22.5765 19.7853 22.0043L23.1187 19.3239C24.208 18.4476 25.79 18.4476 26.8807 19.3239L30.214 22.0043C30.9253 22.5765 31.3333 23.4275 31.3333 24.3399Z" fill="url(#paint3_linear_2_36)"/>
<defs>
<filter id="filter0_ii_2_36" x="0" y="-2" width="50" height="54" filterUnits="userSpaceOnUse" color-interpolation-filters="sRGB">
<feFlood flood-opacity="0" result="BackgroundImageFix"/>
<feBlend mode="normal" in="SourceGraphic" in2="BackgroundImageFix" result="shape"/>
<feColorMatrix in="SourceAlpha" type="matrix" values="0 0 0 0 0 0 0 0 0 0 0 0 0 0 0 0 0 0 127 0" result="hardAlpha"/>
<feOffset dy="2"/>
<feGaussianBlur stdDeviation="4"/>
<feComposite in2="hardAlpha" operator="arithmetic" k2="-1" k3="1"/>
<feColorMatrix type="matrix" values="0 0 0 0 1 0 0 0 0 1 0 0 0 0 1 0 0 0 0.12 0"/>
<feBlend mode="normal" in2="shape" result="effect1_innerShadow_2_36"/>
<feColorMatrix in="SourceAlpha" type="matrix" values="0 0 0 0 0 0 0 0 0 0 0 0 0 0 0 0 0 0 127 0" result="hardAlpha"/>
<feOffset dy="-2"/>
<feGaussianBlur stdDeviation="4"/>
<feComposite in2="hardAlpha" operator="arithmetic" k2="-1" k3="1"/>
<feColorMatrix type="matrix" values="0 0 0 0 0 0 0 0 0 0 0 0 0 0 0 0 0 0 0.2 0"/>
<feBlend mode="normal" in2="effect1_innerShadow_2_36" result="effect2_innerShadow_2_36"/>
</filter>
<linearGradient id="paint0_linear_2_36" x1="25" y1="0" x2="25" y2="60.625" gradientUnits="userSpaceOnUse">
<stop stop-color="#686DB1"/>
<stop offset="1" stop-color="#2B2E51"/>
</linearGradient>
<linearGradient id="paint1_linear_2_36" x1="25" y1="10" x2="25" y2="40" gradientUnits="userSpaceOnUse">
<stop stop-color="#2B2E51"/>
<stop offset="1" stop-color="#686DB1"/>
</linearGradient>
<linearGradient id="paint2_linear_2_36" x1="25" y1="12" x2="25" y2="38" gradientUnits="userSpaceOnUse">
<stop stop-color="white" stop-opacity="0.69"/>
<stop offset="1" stop-color="white"/>
</linearGradient>
<linearGradient id="paint3_linear_2_36" x1="25" y1="18.6667" x2="25" y2="31.3333" gradientUnits="userSpaceOnUse">
<stop stop-color="#686DB1"/>
<stop offset="1" stop-color="#2B2E51"/>
</linearGradient>
</defs>
</svg>
