<svg width="50" height="50" viewBox="0 0 50 50" fill="none" xmlns="http://www.w3.org/2000/svg">
<g filter="url(#filter0_ii_2_77)">
<rect width="50" height="50" rx="10" fill="url(#paint0_linear_2_77)"/>
</g>
<circle cx="25" cy="25" r="15" fill="url(#paint1_linear_2_77)"/>
<circle cx="25" cy="25" r="13" fill="url(#paint2_linear_2_77)"/>
<path d="M30.0328 24.3313C29.7295 23.6485 29.2885 23.0357 28.7375 22.5313L28.2828 22.1141C28.2674 22.1003 28.2488 22.0905 28.2287 22.0856C28.2086 22.0807 28.1876 22.0808 28.1675 22.0859C28.1475 22.0909 28.129 22.1009 28.1137 22.1148C28.0984 22.1287 28.0867 22.1462 28.0797 22.1656L27.8766 22.7484C27.75 23.1141 27.5172 23.4875 27.1875 23.8547C27.1656 23.8781 27.1406 23.8844 27.1234 23.8859C27.1063 23.8875 27.0797 23.8844 27.0562 23.8625C27.0344 23.8438 27.0234 23.8156 27.025 23.7875C27.0828 22.8469 26.8016 21.7859 26.1859 20.6313C25.6766 19.6719 24.9687 18.9234 24.0844 18.4016L23.4391 18.0219C23.3547 17.9719 23.2469 18.0375 23.2516 18.1359L23.2859 18.8859C23.3094 19.3984 23.25 19.8516 23.1094 20.2281C22.9375 20.6891 22.6906 21.1172 22.375 21.5016C22.1553 21.7687 21.9064 22.0103 21.6328 22.2219C20.9739 22.7284 20.4381 23.3774 20.0656 24.1203C19.694 24.8697 19.5005 25.6948 19.5 26.5313C19.5 27.2688 19.6453 27.9828 19.9328 28.6563C20.2104 29.3046 20.611 29.8931 21.1125 30.3891C21.6188 30.8891 22.2063 31.2828 22.8609 31.5563C23.5391 31.8406 24.2578 31.9844 25 31.9844C25.7422 31.9844 26.4609 31.8406 27.1391 31.5578C27.7921 31.286 28.386 30.8895 28.8875 30.3906C29.3937 29.8906 29.7906 29.3063 30.0672 28.6578C30.3543 27.9862 30.5015 27.2632 30.5 26.5328C30.5 25.7703 30.3437 25.0297 30.0328 24.3313V24.3313Z" fill="url(#paint3_linear_2_77)"/>
<defs>
<filter id="filter0_ii_2_77" x="0" y="-2" width="50" height="54" filterUnits="userSpaceOnUse" color-interpolation-filters="sRGB">
<feFlood flood-opacity="0" result="BackgroundImageFix"/>
<feBlend mode="normal" in="SourceGraphic" in2="BackgroundImageFix" result="shape"/>
<feColorMatrix in="SourceAlpha" type="matrix" values="0 0 0 0 0 0 0 0 0 0 0 0 0 0 0 0 0 0 127 0" result="hardAlpha"/>
<feOffset dy="2"/>
<feGaussianBlur stdDeviation="4"/>
<feComposite in2="hardAlpha" operator="arithmetic" k2="-1" k3="1"/>
<feColorMatrix type="matrix" values="0 0 0 0 1 0 0 0 0 1 0 0 0 0 1 0 0 0 0.12 0"/>
<feBlend mode="normal" in2="shape" result="effect1_innerShadow_2_77"/>
<feColorMatrix in="SourceAlpha" type="matrix" values="0 0 0 0 0 0 0 0 0 0 0 0 0 0 0 0 0 0 127 0" result="hardAlpha"/>
<feOffset dy="-2"/>
<feGaussianBlur stdDeviation="4"/>
<feComposite in2="hardAlpha" operator="arithmetic" k2="-1" k3="1"/>
<feColorMatrix type="matrix" values="0 0 0 0 0 0 0 0 0 0 0 0 0 0 0 0 0 0 0.2 0"/>
<feBlend mode="normal" in2="effect1_innerShadow_2_77" result="effect2_innerShadow_2_77"/>
</filter>
<linearGradient id="paint0_linear_2_77" x1="25" y1="0" x2="25" y2="60.625" gradientUnits="userSpaceOnUse">
<stop stop-color="#686DB1"/>
<stop offset="1" stop-color="#2B2E51"/>
</linearGradient>
<linearGradient id="paint1_linear_2_77" x1="25" y1="10" x2="25" y2="40" gradientUnits="userSpaceOnUse">
<stop stop-color="#2B2E51"/>
<stop offset="1" stop-color="#686DB1"/>
</linearGradient>
<linearGradient id="paint2_linear_2_77" x1="25" y1="12" x2="25" y2="38" gradientUnits="userSpaceOnUse">
<stop stop-color="white" stop-opacity="0.69"/>
<stop offset="1" stop-color="white"/>
</linearGradient>
<linearGradient id="paint3_linear_2_77" x1="25" y1="18.0047" x2="25" y2="31.9844" gradientUnits="userSpaceOnUse">
<stop stop-color="#686DB1"/>
<stop offset="1" stop-color="#2B2E51"/>
</linearGradient>
</defs>
</svg>
