<svg width="50" height="50" viewBox="0 0 50 50" fill="none" xmlns="http://www.w3.org/2000/svg">
<g filter="url(#filter0_ii_2_65)">
<rect width="50" height="50" rx="10" fill="url(#paint0_linear_2_65)"/>
</g>
<circle cx="25" cy="25" r="15" fill="url(#paint1_linear_2_65)"/>
<circle cx="25" cy="25" r="13" fill="url(#paint2_linear_2_65)"/>
<path d="M26 26H25.5V23.25C25.5 23.1119 25.3881 23 25.25 23H24.8256C24.6775 23 24.5328 23.0437 24.4097 23.1259L23.9306 23.4453C23.9033 23.4635 23.8798 23.4869 23.8616 23.5142C23.8433 23.5414 23.8306 23.572 23.8241 23.6042C23.8177 23.6364 23.8176 23.6695 23.824 23.7017C23.8304 23.7339 23.843 23.7646 23.8612 23.7919L24.1388 24.2078C24.1569 24.2351 24.1803 24.2586 24.2076 24.2769C24.2349 24.2952 24.2655 24.3079 24.2977 24.3143C24.3298 24.3208 24.363 24.3208 24.3952 24.3144C24.4274 24.3081 24.458 24.2954 24.4853 24.2772L24.5 24.2675V26H24C23.8619 26 23.75 26.1119 23.75 26.25V26.75C23.75 26.8881 23.8619 27 24 27H26C26.1381 27 26.25 26.8881 26.25 26.75V26.25C26.25 26.1119 26.1381 26 26 26ZM34 19H16C15.4478 19 15 19.4478 15 20V30C15 30.5522 15.4478 31 16 31H34C34.5522 31 35 30.5522 35 30V20C35 19.4478 34.5522 19 34 19ZM16.5 29.5V27.5C17.6047 27.5 18.5 28.3953 18.5 29.5H16.5ZM16.5 22.5V20.5H18.5C18.5 21.6047 17.6047 22.5 16.5 22.5ZM25 28.5C23.3431 28.5 22 26.9328 22 25C22 23.0669 23.3431 21.5 25 21.5C26.6569 21.5 28 23.0669 28 25C28 26.9334 26.6562 28.5 25 28.5ZM33.5 29.5H31.5C31.5 28.3953 32.3953 27.5 33.5 27.5V29.5ZM33.5 22.5C32.3953 22.5 31.5 21.6047 31.5 20.5H33.5V22.5Z" fill="url(#paint3_linear_2_65)"/>
<defs>
<filter id="filter0_ii_2_65" x="0" y="-2" width="50" height="54" filterUnits="userSpaceOnUse" color-interpolation-filters="sRGB">
<feFlood flood-opacity="0" result="BackgroundImageFix"/>
<feBlend mode="normal" in="SourceGraphic" in2="BackgroundImageFix" result="shape"/>
<feColorMatrix in="SourceAlpha" type="matrix" values="0 0 0 0 0 0 0 0 0 0 0 0 0 0 0 0 0 0 127 0" result="hardAlpha"/>
<feOffset dy="2"/>
<feGaussianBlur stdDeviation="4"/>
<feComposite in2="hardAlpha" operator="arithmetic" k2="-1" k3="1"/>
<feColorMatrix type="matrix" values="0 0 0 0 1 0 0 0 0 1 0 0 0 0 1 0 0 0 0.12 0"/>
<feBlend mode="normal" in2="shape" result="effect1_innerShadow_2_65"/>
<feColorMatrix in="SourceAlpha" type="matrix" values="0 0 0 0 0 0 0 0 0 0 0 0 0 0 0 0 0 0 127 0" result="hardAlpha"/>
<feOffset dy="-2"/>
<feGaussianBlur stdDeviation="4"/>
<feComposite in2="hardAlpha" operator="arithmetic" k2="-1" k3="1"/>
<feColorMatrix type="matrix" values="0 0 0 0 0 0 0 0 0 0 0 0 0 0 0 0 0 0 0.2 0"/>
<feBlend mode="normal" in2="effect1_innerShadow_2_65" result="effect2_innerShadow_2_65"/>
</filter>
<linearGradient id="paint0_linear_2_65" x1="25" y1="0" x2="25" y2="60.625" gradientUnits="userSpaceOnUse">
<stop stop-color="#686DB1"/>
<stop offset="1" stop-color="#2B2E51"/>
</linearGradient>
<linearGradient id="paint1_linear_2_65" x1="25" y1="10" x2="25" y2="40" gradientUnits="userSpaceOnUse">
<stop stop-color="#2B2E51"/>
<stop offset="1" stop-color="#686DB1"/>
</linearGradient>
<linearGradient id="paint2_linear_2_65" x1="25" y1="12" x2="25" y2="38" gradientUnits="userSpaceOnUse">
<stop stop-color="white" stop-opacity="0.69"/>
<stop offset="1" stop-color="white"/>
</linearGradient>
<linearGradient id="paint3_linear_2_65" x1="25" y1="19" x2="25" y2="31" gradientUnits="userSpaceOnUse">
<stop stop-color="#686DB1"/>
<stop offset="1" stop-color="#2B2E51"/>
</linearGradient>
</defs>
</svg>
