<svg width="50" height="50" viewBox="0 0 50 50" fill="none" xmlns="http://www.w3.org/2000/svg">
<g filter="url(#filter0_ii_2_41)">
<rect width="50" height="50" rx="10" fill="url(#paint0_linear_2_41)"/>
</g>
<circle cx="25" cy="25" r="15" fill="url(#paint1_linear_2_41)"/>
<circle cx="25" cy="25" r="13" fill="url(#paint2_linear_2_41)"/>
<path fill-rule="evenodd" clip-rule="evenodd" d="M21.8 18.6C21.3757 18.6 20.9687 18.7686 20.6686 19.0686C20.3686 19.3687 20.2 19.7757 20.2 20.2V29.8C20.2 30.2244 20.3686 30.6313 20.6686 30.9314C20.9687 31.2314 21.3757 31.4 21.8 31.4H28.2C28.6244 31.4 29.0313 31.2314 29.3314 30.9314C29.6314 30.6313 29.8 30.2244 29.8 29.8V20.2C29.8 19.7757 29.6314 19.3687 29.3314 19.0686C29.0313 18.7686 28.6244 18.6 28.2 18.6H21.8ZM22.6 20.2C22.3878 20.2 22.1844 20.2843 22.0343 20.4343C21.8843 20.5843 21.8 20.7878 21.8 21C21.8 21.2122 21.8843 21.4157 22.0343 21.5657C22.1844 21.7157 22.3878 21.8 22.6 21.8H27.4C27.6122 21.8 27.8157 21.7157 27.9657 21.5657C28.1157 21.4157 28.2 21.2122 28.2 21C28.2 20.7878 28.1157 20.5843 27.9657 20.4343C27.8157 20.2843 27.6122 20.2 27.4 20.2H22.6ZM27.4 25.8C27.6122 25.8 27.8157 25.8843 27.9657 26.0343C28.1157 26.1844 28.2 26.3878 28.2 26.6V29C28.2 29.2122 28.1157 29.4157 27.9657 29.5657C27.8157 29.7157 27.6122 29.8 27.4 29.8C27.1878 29.8 26.9844 29.7157 26.8343 29.5657C26.6843 29.4157 26.6 29.2122 26.6 29V26.6C26.6 26.3878 26.6843 26.1844 26.8343 26.0343C26.9844 25.8843 27.1878 25.8 27.4 25.8V25.8ZM25 28.2C24.7878 28.2 24.5844 28.2843 24.4343 28.4343C24.2843 28.5844 24.2 28.7878 24.2 29C24.2 29.2122 24.2843 29.4157 24.4343 29.5657C24.5844 29.7157 24.7878 29.8 25 29.8H25.008C25.2202 29.8 25.4237 29.7157 25.5737 29.5657C25.7237 29.4157 25.808 29.2122 25.808 29C25.808 28.7878 25.7237 28.5844 25.5737 28.4343C25.4237 28.2843 25.2202 28.2 25.008 28.2H25ZM21.8 29C21.8 28.7878 21.8843 28.5844 22.0343 28.4343C22.1844 28.2843 22.3878 28.2 22.6 28.2H22.608C22.8202 28.2 23.0237 28.2843 23.1737 28.4343C23.3237 28.5844 23.408 28.7878 23.408 29C23.408 29.2122 23.3237 29.4157 23.1737 29.5657C23.0237 29.7157 22.8202 29.8 22.608 29.8H22.6C22.3878 29.8 22.1844 29.7157 22.0343 29.5657C21.8843 29.4157 21.8 29.2122 21.8 29ZM22.6 25.8C22.3878 25.8 22.1844 25.8843 22.0343 26.0343C21.8843 26.1844 21.8 26.3878 21.8 26.6C21.8 26.8122 21.8843 27.0157 22.0343 27.1657C22.1844 27.3157 22.3878 27.4 22.6 27.4H22.608C22.8202 27.4 23.0237 27.3157 23.1737 27.1657C23.3237 27.0157 23.408 26.8122 23.408 26.6C23.408 26.3878 23.3237 26.1844 23.1737 26.0343C23.0237 25.8843 22.8202 25.8 22.608 25.8H22.6ZM24.2 26.6C24.2 26.3878 24.2843 26.1844 24.4343 26.0343C24.5844 25.8843 24.7878 25.8 25 25.8H25.008C25.2202 25.8 25.4237 25.8843 25.5737 26.0343C25.7237 26.1844 25.808 26.3878 25.808 26.6C25.808 26.8122 25.7237 27.0157 25.5737 27.1657C25.4237 27.3157 25.2202 27.4 25.008 27.4H25C24.7878 27.4 24.5844 27.3157 24.4343 27.1657C24.2843 27.0157 24.2 26.8122 24.2 26.6ZM27.4 23.4C27.1878 23.4 26.9844 23.4843 26.8343 23.6343C26.6843 23.7844 26.6 23.9878 26.6 24.2C26.6 24.4122 26.6843 24.6157 26.8343 24.7657C26.9844 24.9157 27.1878 25 27.4 25H27.408C27.6202 25 27.8237 24.9157 27.9737 24.7657C28.1237 24.6157 28.208 24.4122 28.208 24.2C28.208 23.9878 28.1237 23.7844 27.9737 23.6343C27.8237 23.4843 27.6202 23.4 27.408 23.4H27.4ZM24.2 24.2C24.2 23.9878 24.2843 23.7844 24.4343 23.6343C24.5844 23.4843 24.7878 23.4 25 23.4H25.008C25.2202 23.4 25.4237 23.4843 25.5737 23.6343C25.7237 23.7844 25.808 23.9878 25.808 24.2C25.808 24.4122 25.7237 24.6157 25.5737 24.7657C25.4237 24.9157 25.2202 25 25.008 25H25C24.7878 25 24.5844 24.9157 24.4343 24.7657C24.2843 24.6157 24.2 24.4122 24.2 24.2ZM22.6 23.4C22.3878 23.4 22.1844 23.4843 22.0343 23.6343C21.8843 23.7844 21.8 23.9878 21.8 24.2C21.8 24.4122 21.8843 24.6157 22.0343 24.7657C22.1844 24.9157 22.3878 25 22.6 25H22.608C22.8202 25 23.0237 24.9157 23.1737 24.7657C23.3237 24.6157 23.408 24.4122 23.408 24.2C23.408 23.9878 23.3237 23.7844 23.1737 23.6343C23.0237 23.4843 22.8202 23.4 22.608 23.4H22.6Z" fill="url(#paint3_linear_2_41)"/>
<defs>
<filter id="filter0_ii_2_41" x="0" y="-2" width="50" height="54" filterUnits="userSpaceOnUse" color-interpolation-filters="sRGB">
<feFlood flood-opacity="0" result="BackgroundImageFix"/>
<feBlend mode="normal" in="SourceGraphic" in2="BackgroundImageFix" result="shape"/>
<feColorMatrix in="SourceAlpha" type="matrix" values="0 0 0 0 0 0 0 0 0 0 0 0 0 0 0 0 0 0 127 0" result="hardAlpha"/>
<feOffset dy="2"/>
<feGaussianBlur stdDeviation="4"/>
<feComposite in2="hardAlpha" operator="arithmetic" k2="-1" k3="1"/>
<feColorMatrix type="matrix" values="0 0 0 0 1 0 0 0 0 1 0 0 0 0 1 0 0 0 0.12 0"/>
<feBlend mode="normal" in2="shape" result="effect1_innerShadow_2_41"/>
<feColorMatrix in="SourceAlpha" type="matrix" values="0 0 0 0 0 0 0 0 0 0 0 0 0 0 0 0 0 0 127 0" result="hardAlpha"/>
<feOffset dy="-2"/>
<feGaussianBlur stdDeviation="4"/>
<feComposite in2="hardAlpha" operator="arithmetic" k2="-1" k3="1"/>
<feColorMatrix type="matrix" values="0 0 0 0 0 0 0 0 0 0 0 0 0 0 0 0 0 0 0.2 0"/>
<feBlend mode="normal" in2="effect1_innerShadow_2_41" result="effect2_innerShadow_2_41"/>
</filter>
<linearGradient id="paint0_linear_2_41" x1="25" y1="0" x2="25" y2="60.625" gradientUnits="userSpaceOnUse">
<stop stop-color="#686DB1"/>
<stop offset="1" stop-color="#2B2E51"/>
</linearGradient>
<linearGradient id="paint1_linear_2_41" x1="25" y1="10" x2="25" y2="40" gradientUnits="userSpaceOnUse">
<stop stop-color="#2B2E51"/>
<stop offset="1" stop-color="#686DB1"/>
</linearGradient>
<linearGradient id="paint2_linear_2_41" x1="25" y1="12" x2="25" y2="38" gradientUnits="userSpaceOnUse">
<stop stop-color="white" stop-opacity="0.69"/>
<stop offset="1" stop-color="white"/>
</linearGradient>
<linearGradient id="paint3_linear_2_41" x1="25" y1="18.6" x2="25" y2="31.4" gradientUnits="userSpaceOnUse">
<stop stop-color="#686DB1"/>
<stop offset="1" stop-color="#2B2E51"/>
</linearGradient>
</defs>
</svg>
