<svg width="50" height="50" viewBox="0 0 50 50" fill="none" xmlns="http://www.w3.org/2000/svg">
<g filter="url(#filter0_ii_2_83)">
<rect width="50" height="50" rx="10" fill="url(#paint0_linear_2_83)"/>
</g>
<circle cx="25" cy="25" r="15" fill="url(#paint1_linear_2_83)"/>
<circle cx="25" cy="25" r="13" fill="url(#paint2_linear_2_83)"/>
<path d="M20 32H30V29.5C29.9989 28.5721 29.6299 27.6824 28.9737 27.0263C28.3176 26.3701 27.4279 26.0011 26.5 26H23.5C22.5721 26.0011 21.6824 26.3701 21.0263 27.0263C20.3701 27.6824 20.0011 28.5721 20 29.5V32ZM21.5 21.5C21.5 22.1922 21.7053 22.8689 22.0899 23.4445C22.4744 24.0201 23.0211 24.4687 23.6606 24.7336C24.3001 24.9985 25.0039 25.0678 25.6828 24.9327C26.3618 24.7977 26.9854 24.4644 27.4749 23.9749C27.9644 23.4854 28.2977 22.8617 28.4327 22.1828C28.5678 21.5039 28.4985 20.8001 28.2336 20.1606C27.9687 19.5211 27.5201 18.9744 26.9445 18.5899C26.3689 18.2053 25.6922 18 25 18C24.0717 18 23.1815 18.3687 22.5251 19.0251C21.8687 19.6815 21.5 20.5717 21.5 21.5V21.5Z" fill="url(#paint3_linear_2_83)"/>
<defs>
<filter id="filter0_ii_2_83" x="0" y="-2" width="50" height="54" filterUnits="userSpaceOnUse" color-interpolation-filters="sRGB">
<feFlood flood-opacity="0" result="BackgroundImageFix"/>
<feBlend mode="normal" in="SourceGraphic" in2="BackgroundImageFix" result="shape"/>
<feColorMatrix in="SourceAlpha" type="matrix" values="0 0 0 0 0 0 0 0 0 0 0 0 0 0 0 0 0 0 127 0" result="hardAlpha"/>
<feOffset dy="2"/>
<feGaussianBlur stdDeviation="4"/>
<feComposite in2="hardAlpha" operator="arithmetic" k2="-1" k3="1"/>
<feColorMatrix type="matrix" values="0 0 0 0 1 0 0 0 0 1 0 0 0 0 1 0 0 0 0.12 0"/>
<feBlend mode="normal" in2="shape" result="effect1_innerShadow_2_83"/>
<feColorMatrix in="SourceAlpha" type="matrix" values="0 0 0 0 0 0 0 0 0 0 0 0 0 0 0 0 0 0 127 0" result="hardAlpha"/>
<feOffset dy="-2"/>
<feGaussianBlur stdDeviation="4"/>
<feComposite in2="hardAlpha" operator="arithmetic" k2="-1" k3="1"/>
<feColorMatrix type="matrix" values="0 0 0 0 0 0 0 0 0 0 0 0 0 0 0 0 0 0 0.2 0"/>
<feBlend mode="normal" in2="effect1_innerShadow_2_83" result="effect2_innerShadow_2_83"/>
</filter>
<linearGradient id="paint0_linear_2_83" x1="25" y1="0" x2="25" y2="60.625" gradientUnits="userSpaceOnUse">
<stop stop-color="#686DB1"/>
<stop offset="1" stop-color="#2B2E51"/>
</linearGradient>
<linearGradient id="paint1_linear_2_83" x1="25" y1="10" x2="25" y2="40" gradientUnits="userSpaceOnUse">
<stop stop-color="#2B2E51"/>
<stop offset="1" stop-color="#686DB1"/>
</linearGradient>
<linearGradient id="paint2_linear_2_83" x1="25" y1="12" x2="25" y2="38" gradientUnits="userSpaceOnUse">
<stop stop-color="white" stop-opacity="0.69"/>
<stop offset="1" stop-color="white"/>
</linearGradient>
<linearGradient id="paint3_linear_2_83" x1="25" y1="18" x2="25" y2="32" gradientUnits="userSpaceOnUse">
<stop stop-color="#686DB1"/>
<stop offset="1" stop-color="#2B2E51"/>
</linearGradient>
</defs>
</svg>
