<svg width="50" height="50" viewBox="0 0 50 50" fill="none" xmlns="http://www.w3.org/2000/svg">
<g filter="url(#filter0_ii_2_47)">
<rect width="50" height="50" rx="10" fill="url(#paint0_linear_2_47)"/>
</g>
<circle cx="25" cy="25" r="15" fill="url(#paint1_linear_2_47)"/>
<circle cx="25" cy="25" r="13" fill="url(#paint2_linear_2_47)"/>
<path d="M29.5487 24.4187C30.178 23.988 30.6406 23.3545 30.8593 22.624C30.926 22.7147 30.9887 22.8087 31.0473 22.906C31.45 23.572 31.6667 24.3753 31.6667 25.3327C31.6667 26.804 31.1113 27.8327 30.5467 28.492C30.2893 28.7923 29.9934 29.0572 29.6667 29.28V30.4993C29.6668 30.6526 29.6367 30.8044 29.5781 30.946C29.5195 31.0876 29.4335 31.2163 29.3252 31.3247C29.2169 31.4331 29.0882 31.5191 28.9466 31.5778C28.805 31.6365 28.6533 31.6667 28.5 31.6667H27.6667C27.4015 31.6667 27.1471 31.5613 26.9596 31.3738C26.772 31.1862 26.6667 30.9319 26.6667 30.6667H25.3333C25.3333 30.9319 25.228 31.1862 25.0405 31.3738C24.8529 31.5613 24.5986 31.6667 24.3333 31.6667H23.5C23.1906 31.6667 22.8938 31.5438 22.6751 31.325C22.4563 31.1062 22.3333 30.8094 22.3333 30.5V30.0447C22.2289 30.0095 22.1257 29.9705 22.024 29.928C21.5107 29.717 21.043 29.4086 20.6467 29.02C20.2273 28.5971 19.8674 28.1192 19.5767 27.5993C19.5551 27.5563 19.5242 27.5185 19.4863 27.4888C19.4484 27.459 19.4043 27.4381 19.3573 27.4273C19.0712 27.3797 18.8113 27.2321 18.6238 27.0107C18.4363 26.7894 18.3333 26.5087 18.3333 26.2187V25.05C18.3333 24.488 18.74 24.0087 19.2933 23.9167C19.3513 23.9067 19.4373 23.8487 19.478 23.7273C19.606 23.3427 19.8547 22.7713 20.3133 22.3127C20.6439 21.9887 21.0155 21.7094 21.4187 21.482C21.5093 21.43 21.5933 21.3853 21.6667 21.3487V19.4467C21.6667 18.8213 22.42 18.5647 22.8267 18.9693C23.0467 19.1887 23.3667 19.4807 23.7207 19.7253C24.074 19.9693 24.412 20.13 24.69 20.1653C24.3603 20.8188 24.2549 21.5627 24.39 22.282C24.5107 22.92 24.9993 23.3233 25.458 23.514L27.922 24.534C28.3813 24.724 29.0113 24.784 29.5487 24.418V24.4187ZM22.3333 24.3327C22.5102 24.3327 22.6797 24.2624 22.8047 24.1374C22.9298 24.0124 23 23.8428 23 23.666C23 23.4892 22.9298 23.3196 22.8047 23.1946C22.6797 23.0696 22.5102 22.9993 22.3333 22.9993C22.1565 22.9993 21.987 23.0696 21.8619 23.1946C21.7369 23.3196 21.6667 23.4892 21.6667 23.666C21.6667 23.8428 21.7369 24.0124 21.8619 24.1374C21.987 24.2624 22.1565 24.3327 22.3333 24.3327ZM29.1727 23.868C29.482 23.6562 29.7432 23.3816 29.9394 23.0622C30.1356 22.7428 30.2623 22.3856 30.3113 22.014C30.361 21.6318 30.3273 21.2434 30.2124 20.8756C30.0975 20.5077 29.9043 20.1691 29.646 19.8831C29.3877 19.5971 29.0705 19.3704 28.7162 19.2188C28.3619 19.0671 27.9789 18.9941 27.5937 19.0047C27.2084 19.0153 26.8301 19.1092 26.4846 19.2801C26.1392 19.4509 25.8349 19.6947 25.5927 19.9944C25.3505 20.2942 25.1761 20.6429 25.0816 21.0165C24.9872 21.3901 24.9748 21.7798 25.0453 22.1587C25.062 22.2453 25.0913 22.3267 25.132 22.402C25.1653 22.464 25.2053 22.522 25.252 22.5753C25.3733 22.7153 25.536 22.8247 25.7133 22.8987L28.1773 23.9187C28.504 24.054 28.8807 24.0673 29.1727 23.868V23.868Z" fill="url(#paint3_linear_2_47)"/>
<defs>
<filter id="filter0_ii_2_47" x="0" y="-2" width="50" height="54" filterUnits="userSpaceOnUse" color-interpolation-filters="sRGB">
<feFlood flood-opacity="0" result="BackgroundImageFix"/>
<feBlend mode="normal" in="SourceGraphic" in2="BackgroundImageFix" result="shape"/>
<feColorMatrix in="SourceAlpha" type="matrix" values="0 0 0 0 0 0 0 0 0 0 0 0 0 0 0 0 0 0 127 0" result="hardAlpha"/>
<feOffset dy="2"/>
<feGaussianBlur stdDeviation="4"/>
<feComposite in2="hardAlpha" operator="arithmetic" k2="-1" k3="1"/>
<feColorMatrix type="matrix" values="0 0 0 0 1 0 0 0 0 1 0 0 0 0 1 0 0 0 0.12 0"/>
<feBlend mode="normal" in2="shape" result="effect1_innerShadow_2_47"/>
<feColorMatrix in="SourceAlpha" type="matrix" values="0 0 0 0 0 0 0 0 0 0 0 0 0 0 0 0 0 0 127 0" result="hardAlpha"/>
<feOffset dy="-2"/>
<feGaussianBlur stdDeviation="4"/>
<feComposite in2="hardAlpha" operator="arithmetic" k2="-1" k3="1"/>
<feColorMatrix type="matrix" values="0 0 0 0 0 0 0 0 0 0 0 0 0 0 0 0 0 0 0.2 0"/>
<feBlend mode="normal" in2="effect1_innerShadow_2_47" result="effect2_innerShadow_2_47"/>
</filter>
<linearGradient id="paint0_linear_2_47" x1="25" y1="0" x2="25" y2="60.625" gradientUnits="userSpaceOnUse">
<stop stop-color="#686DB1"/>
<stop offset="1" stop-color="#2B2E51"/>
</linearGradient>
<linearGradient id="paint1_linear_2_47" x1="25" y1="10" x2="25" y2="40" gradientUnits="userSpaceOnUse">
<stop stop-color="#2B2E51"/>
<stop offset="1" stop-color="#686DB1"/>
</linearGradient>
<linearGradient id="paint2_linear_2_47" x1="25" y1="12" x2="25" y2="38" gradientUnits="userSpaceOnUse">
<stop stop-color="white" stop-opacity="0.69"/>
<stop offset="1" stop-color="white"/>
</linearGradient>
<linearGradient id="paint3_linear_2_47" x1="25" y1="18.7743" x2="25" y2="31.6667" gradientUnits="userSpaceOnUse">
<stop stop-color="#686DB1"/>
<stop offset="1" stop-color="#2B2E51"/>
</linearGradient>
</defs>
</svg>
