<svg width="50" height="50" viewBox="0 0 50 50" fill="none" xmlns="http://www.w3.org/2000/svg">
<g filter="url(#filter0_ii_2_241)">
<rect width="50" height="50" rx="10" fill="white"/>
</g>
<circle cx="25" cy="25" r="15" fill="url(#paint0_linear_2_241)"/>
<circle cx="25" cy="25" r="13" fill="url(#paint1_linear_2_241)"/>
<path d="M25.0078 23.1031C24.5406 23.1031 24.1031 23.2844 23.7719 23.6156C23.4422 23.9469 23.2594 24.3844 23.2594 24.8516C23.2594 25.3187 23.4422 25.7562 23.7719 26.0875C24.1031 26.4172 24.5406 26.6 25.0078 26.6C25.475 26.6 25.9125 26.4172 26.2438 26.0875C26.5734 25.7562 26.7563 25.3187 26.7563 24.8516C26.7563 24.3844 26.5734 23.9469 26.2438 23.6156C26.082 23.4526 25.8894 23.3233 25.6772 23.2353C25.465 23.1474 25.2375 23.1024 25.0078 23.1031ZM31.45 26.7828L30.4281 25.9094C30.4766 25.6125 30.5016 25.3094 30.5016 25.0078C30.5016 24.7062 30.4766 24.4016 30.4281 24.1062L31.45 23.2328C31.5272 23.1667 31.5825 23.0787 31.6084 22.9805C31.6344 22.8822 31.6298 22.7784 31.5953 22.6828L31.5813 22.6422C31.3 21.8558 30.8786 21.1268 30.3375 20.4906L30.3094 20.4578C30.2437 20.3805 30.1561 20.325 30.0582 20.2985C29.9603 20.272 29.8567 20.2758 29.7609 20.3094L28.4922 20.7609C28.0234 20.3766 27.5016 20.0734 26.9359 19.8625L26.6906 18.5359C26.6721 18.436 26.6236 18.3441 26.5516 18.2723C26.4796 18.2006 26.3875 18.1525 26.2875 18.1344L26.2453 18.1266C25.4328 17.9797 24.5766 17.9797 23.7641 18.1266L23.7219 18.1344C23.6219 18.1525 23.5298 18.2006 23.4577 18.2723C23.3857 18.3441 23.3373 18.436 23.3188 18.5359L23.0719 19.8687C22.5116 20.0814 21.9897 20.3838 21.5266 20.7641L20.2484 20.3094C20.1528 20.2755 20.0491 20.2716 19.9511 20.2981C19.8531 20.3246 19.7656 20.3803 19.7 20.4578L19.6719 20.4906C19.1317 21.1275 18.7104 21.8563 18.4281 22.6422L18.4141 22.6828C18.3438 22.8781 18.4016 23.0969 18.5594 23.2328L19.5938 24.1156C19.5453 24.4094 19.5219 24.7094 19.5219 25.0062C19.5219 25.3062 19.5453 25.6062 19.5938 25.8969L18.5625 26.7797C18.4853 26.8458 18.4301 26.9338 18.4041 27.032C18.3782 27.1303 18.3827 27.2341 18.4172 27.3297L18.4313 27.3703C18.7141 28.1562 19.1313 28.8828 19.675 29.5219L19.7031 29.5547C19.7688 29.6319 19.8564 29.6875 19.9543 29.714C20.0522 29.7405 20.1559 29.7367 20.2516 29.7031L21.5297 29.2484C21.9953 29.6312 22.5141 29.9344 23.075 30.1437L23.3219 31.4766C23.3404 31.5765 23.3889 31.6684 23.4609 31.7402C23.5329 31.8119 23.625 31.86 23.725 31.8781L23.7672 31.8859C24.5877 32.0336 25.428 32.0336 26.2484 31.8859L26.2906 31.8781C26.3906 31.86 26.4828 31.8119 26.5548 31.7402C26.6268 31.6684 26.6753 31.5765 26.6938 31.4766L26.9391 30.15C27.5047 29.9375 28.0266 29.6359 28.4953 29.2516L29.7641 29.7031C29.8597 29.737 29.9635 29.7409 30.0614 29.7144C30.1594 29.6879 30.247 29.6322 30.3125 29.5547L30.3406 29.5219C30.8844 28.8797 31.3016 28.1562 31.5844 27.3703L31.5984 27.3297C31.6656 27.1359 31.6078 26.9187 31.45 26.7828ZM25.0078 27.5984C23.4906 27.5984 22.2609 26.3687 22.2609 24.8516C22.2609 23.3344 23.4906 22.1047 25.0078 22.1047C26.525 22.1047 27.7547 23.3344 27.7547 24.8516C27.7547 26.3687 26.525 27.5984 25.0078 27.5984Z" fill="url(#paint2_linear_2_241)"/>
<defs>
<filter id="filter0_ii_2_241" x="0" y="-2" width="50" height="54" filterUnits="userSpaceOnUse" color-interpolation-filters="sRGB">
<feFlood flood-opacity="0" result="BackgroundImageFix"/>
<feBlend mode="normal" in="SourceGraphic" in2="BackgroundImageFix" result="shape"/>
<feColorMatrix in="SourceAlpha" type="matrix" values="0 0 0 0 0 0 0 0 0 0 0 0 0 0 0 0 0 0 127 0" result="hardAlpha"/>
<feOffset dy="2"/>
<feGaussianBlur stdDeviation="4"/>
<feComposite in2="hardAlpha" operator="arithmetic" k2="-1" k3="1"/>
<feColorMatrix type="matrix" values="0 0 0 0 1 0 0 0 0 1 0 0 0 0 1 0 0 0 0.12 0"/>
<feBlend mode="normal" in2="shape" result="effect1_innerShadow_2_241"/>
<feColorMatrix in="SourceAlpha" type="matrix" values="0 0 0 0 0 0 0 0 0 0 0 0 0 0 0 0 0 0 127 0" result="hardAlpha"/>
<feOffset dy="-2"/>
<feGaussianBlur stdDeviation="4"/>
<feComposite in2="hardAlpha" operator="arithmetic" k2="-1" k3="1"/>
<feColorMatrix type="matrix" values="0 0 0 0 0 0 0 0 0 0 0 0 0 0 0 0 0 0 0.2 0"/>
<feBlend mode="normal" in2="effect1_innerShadow_2_241" result="effect2_innerShadow_2_241"/>
</filter>
<linearGradient id="paint0_linear_2_241" x1="25" y1="10" x2="25" y2="40" gradientUnits="userSpaceOnUse">
<stop stop-color="#2B2E51"/>
<stop offset="1" stop-color="#686DB1"/>
</linearGradient>
<linearGradient id="paint1_linear_2_241" x1="25" y1="12" x2="25" y2="38" gradientUnits="userSpaceOnUse">
<stop stop-color="white" stop-opacity="0.69"/>
<stop offset="1" stop-color="white"/>
</linearGradient>
<linearGradient id="paint2_linear_2_241" x1="25.0053" y1="18.0164" x2="25.0053" y2="31.9967" gradientUnits="userSpaceOnUse">
<stop stop-color="#686DB1"/>
<stop offset="1" stop-color="#2B2E51"/>
</linearGradient>
</defs>
</svg>
