<svg width="50" height="50" viewBox="0 0 50 50" fill="none" xmlns="http://www.w3.org/2000/svg">
<g filter="url(#filter0_ii_2_89)">
<rect width="50" height="50" rx="10" fill="url(#paint0_linear_2_89)"/>
</g>
<circle cx="25" cy="25" r="15" fill="url(#paint1_linear_2_89)"/>
<circle cx="25" cy="25" r="13" fill="url(#paint2_linear_2_89)"/>
<path d="M27 21.25H23C22.0335 21.25 21.25 22.0335 21.25 23V27C21.25 27.9665 22.0335 28.75 23 28.75H27C27.9665 28.75 28.75 27.9665 28.75 27V23C28.75 22.0335 27.9665 21.25 27 21.25Z" fill="url(#paint3_linear_2_89)"/>
<path d="M27.5 20V18C27.5 17.8674 27.4473 17.7402 27.3536 17.6464C27.2598 17.5527 27.1326 17.5 27 17.5H23C22.8674 17.5 22.7402 17.5527 22.6464 17.6464C22.5527 17.7402 22.5 17.8674 22.5 18V20C21.8372 20.0007 21.2017 20.2644 20.7331 20.7331C20.2644 21.2017 20.0007 21.8372 20 22.5V27.5C20.0007 28.1628 20.2644 28.7983 20.7331 29.2669C21.2017 29.7356 21.8372 29.9993 22.5 30V32C22.5 32.1326 22.5527 32.2598 22.6464 32.3536C22.7402 32.4473 22.8674 32.5 23 32.5H27C27.1326 32.5 27.2598 32.4473 27.3536 32.3536C27.4473 32.2598 27.5 32.1326 27.5 32V30C28.1628 29.9993 28.7983 29.7356 29.2669 29.2669C29.7356 28.7983 29.9993 28.1628 30 27.5V22.5C29.9993 21.8372 29.7356 21.2017 29.2669 20.7331C28.7983 20.2644 28.1628 20.0007 27.5 20V20ZM29.25 27C29.2493 27.5965 29.0121 28.1684 28.5903 28.5903C28.1684 29.0121 27.5965 29.2493 27 29.25H23C22.4035 29.2493 21.8316 29.0121 21.4097 28.5903C20.9879 28.1684 20.7507 27.5965 20.75 27V23C20.7507 22.4035 20.9879 21.8316 21.4097 21.4097C21.8316 20.9879 22.4035 20.7507 23 20.75H27C27.5965 20.7507 28.1684 20.9879 28.5903 21.4097C29.0121 21.8316 29.2493 22.4035 29.25 23V27Z" fill="url(#paint4_linear_2_89)"/>
<defs>
<filter id="filter0_ii_2_89" x="0" y="-2" width="50" height="54" filterUnits="userSpaceOnUse" color-interpolation-filters="sRGB">
<feFlood flood-opacity="0" result="BackgroundImageFix"/>
<feBlend mode="normal" in="SourceGraphic" in2="BackgroundImageFix" result="shape"/>
<feColorMatrix in="SourceAlpha" type="matrix" values="0 0 0 0 0 0 0 0 0 0 0 0 0 0 0 0 0 0 127 0" result="hardAlpha"/>
<feOffset dy="2"/>
<feGaussianBlur stdDeviation="4"/>
<feComposite in2="hardAlpha" operator="arithmetic" k2="-1" k3="1"/>
<feColorMatrix type="matrix" values="0 0 0 0 1 0 0 0 0 1 0 0 0 0 1 0 0 0 0.12 0"/>
<feBlend mode="normal" in2="shape" result="effect1_innerShadow_2_89"/>
<feColorMatrix in="SourceAlpha" type="matrix" values="0 0 0 0 0 0 0 0 0 0 0 0 0 0 0 0 0 0 127 0" result="hardAlpha"/>
<feOffset dy="-2"/>
<feGaussianBlur stdDeviation="4"/>
<feComposite in2="hardAlpha" operator="arithmetic" k2="-1" k3="1"/>
<feColorMatrix type="matrix" values="0 0 0 0 0 0 0 0 0 0 0 0 0 0 0 0 0 0 0.2 0"/>
<feBlend mode="normal" in2="effect1_innerShadow_2_89" result="effect2_innerShadow_2_89"/>
</filter>
<linearGradient id="paint0_linear_2_89" x1="25" y1="0" x2="25" y2="60.625" gradientUnits="userSpaceOnUse">
<stop stop-color="#686DB1"/>
<stop offset="1" stop-color="#2B2E51"/>
</linearGradient>
<linearGradient id="paint1_linear_2_89" x1="25" y1="10" x2="25" y2="40" gradientUnits="userSpaceOnUse">
<stop stop-color="#2B2E51"/>
<stop offset="1" stop-color="#686DB1"/>
</linearGradient>
<linearGradient id="paint2_linear_2_89" x1="25" y1="12" x2="25" y2="38" gradientUnits="userSpaceOnUse">
<stop stop-color="white" stop-opacity="0.69"/>
<stop offset="1" stop-color="white"/>
</linearGradient>
<linearGradient id="paint3_linear_2_89" x1="25" y1="21.25" x2="25" y2="28.75" gradientUnits="userSpaceOnUse">
<stop stop-color="#686DB1"/>
<stop offset="1" stop-color="#2B2E51"/>
</linearGradient>
<linearGradient id="paint4_linear_2_89" x1="25" y1="17.5" x2="25" y2="32.5" gradientUnits="userSpaceOnUse">
<stop stop-color="#686DB1"/>
<stop offset="1" stop-color="#2B2E51"/>
</linearGradient>
</defs>
</svg>
