<svg width="38" height="38" viewBox="0 0 38 38" fill="none" xmlns="http://www.w3.org/2000/svg">
<g filter="url(#filter0_ii_2_150)">
<rect width="38" height="38" rx="19" fill="url(#paint0_linear_2_150)"/>
</g>
<circle cx="19" cy="19" r="15" fill="url(#paint1_linear_2_150)"/>
<circle cx="19" cy="19" r="13" fill="url(#paint2_linear_2_150)"/>
<path d="M23.3427 16.3076C23.4436 17.3285 23.0764 18.052 22.2411 18.4783C22.897 18.6354 23.3875 18.9242 23.7127 19.3449C24.0378 19.7656 24.164 20.3657 24.0911 21.1454C24.0519 21.5436 23.9608 21.8942 23.8178 22.1971C23.6748 22.4999 23.494 22.7495 23.2754 22.9459C23.0568 23.1422 22.7849 23.3062 22.4597 23.438C22.1345 23.5699 21.794 23.6666 21.438 23.7283C21.082 23.79 20.6741 23.8321 20.2144 23.8545V25.9999H18.9194V23.8882C18.4709 23.8882 18.1289 23.8854 17.8935 23.8797V25.9999H16.5985V23.8545C16.4975 23.8545 16.3462 23.8531 16.1444 23.8503C15.9425 23.8475 15.7884 23.8461 15.6818 23.8461H14L14.2607 22.3064H15.1941C15.4744 22.3064 15.637 22.1634 15.6818 21.8773V18.4951H15.8164C15.7828 18.4895 15.7379 18.4867 15.6818 18.4867V16.0721C15.609 15.6906 15.3595 15.4999 14.9334 15.4999H14V14.1201L15.7828 14.1285C16.1416 14.1285 16.4135 14.1257 16.5985 14.1201V11.9999H17.8935V14.0781C18.3532 14.0668 18.6952 14.0612 18.9194 14.0612V11.9999H20.2144V14.1201C20.6573 14.1594 21.0498 14.2225 21.3917 14.3094C21.7337 14.3964 22.0505 14.5226 22.342 14.688C22.6335 14.8535 22.8647 15.0723 23.0357 15.3443C23.2067 15.6163 23.309 15.9374 23.3427 16.3076ZM21.5347 20.893C21.5347 20.691 21.4926 20.5116 21.4085 20.3545C21.3245 20.1975 21.2207 20.0684 21.0974 19.9675C20.9741 19.8665 20.8129 19.781 20.6139 19.7109C20.4149 19.6408 20.2313 19.5889 20.0631 19.5552C19.8949 19.5216 19.6875 19.4963 19.4408 19.4795C19.1941 19.4627 19.0007 19.4543 18.8605 19.4543C18.7204 19.4543 18.5396 19.4571 18.3181 19.4627C18.0967 19.4683 17.9636 19.4711 17.9187 19.4711V22.3148C17.9636 22.3148 18.0673 22.3162 18.2299 22.3191C18.3924 22.3219 18.527 22.3233 18.6335 22.3233C18.74 22.3233 18.8886 22.319 19.0792 22.3106C19.2698 22.3022 19.4338 22.291 19.5711 22.277C19.7085 22.263 19.8683 22.2391 20.0505 22.2055C20.2327 22.1718 20.3882 22.1326 20.5172 22.0877C20.6461 22.0428 20.7793 21.9839 20.9166 21.911C21.054 21.8381 21.1647 21.7539 21.2488 21.6586C21.3329 21.5632 21.4015 21.4511 21.4548 21.3221C21.5081 21.193 21.5347 21.05 21.5347 20.893ZM20.9376 16.8882C20.9376 16.7031 20.9026 16.539 20.8325 16.396C20.7624 16.2529 20.6769 16.1352 20.576 16.0426C20.4751 15.9501 20.3406 15.8715 20.1724 15.807C20.0042 15.7425 19.85 15.6963 19.7099 15.6682C19.5697 15.6402 19.3973 15.6177 19.1927 15.6009C18.9881 15.5841 18.8255 15.5771 18.705 15.5799C18.5844 15.5827 18.4331 15.5855 18.2509 15.5883C18.0687 15.5911 17.958 15.5925 17.9187 15.5925V18.1754C17.9467 18.1754 18.0434 18.1768 18.2088 18.1796C18.3742 18.1824 18.5046 18.1824 18.5999 18.1796C18.6952 18.1768 18.8353 18.1712 19.0203 18.1628C19.2053 18.1544 19.3595 18.139 19.4828 18.1165C19.6062 18.0941 19.7505 18.0632 19.9159 18.024C20.0813 17.9847 20.2172 17.9328 20.3238 17.8683C20.4303 17.8038 20.534 17.7281 20.6349 17.6412C20.7358 17.5542 20.8115 17.4463 20.8619 17.3172C20.9124 17.1882 20.9376 17.0452 20.9376 16.8882Z" fill="url(#paint3_linear_2_150)"/>
<defs>
<filter id="filter0_ii_2_150" x="0" y="-2" width="38" height="42" filterUnits="userSpaceOnUse" color-interpolation-filters="sRGB">
<feFlood flood-opacity="0" result="BackgroundImageFix"/>
<feBlend mode="normal" in="SourceGraphic" in2="BackgroundImageFix" result="shape"/>
<feColorMatrix in="SourceAlpha" type="matrix" values="0 0 0 0 0 0 0 0 0 0 0 0 0 0 0 0 0 0 127 0" result="hardAlpha"/>
<feOffset dy="2"/>
<feGaussianBlur stdDeviation="4"/>
<feComposite in2="hardAlpha" operator="arithmetic" k2="-1" k3="1"/>
<feColorMatrix type="matrix" values="0 0 0 0 1 0 0 0 0 1 0 0 0 0 1 0 0 0 0.12 0"/>
<feBlend mode="normal" in2="shape" result="effect1_innerShadow_2_150"/>
<feColorMatrix in="SourceAlpha" type="matrix" values="0 0 0 0 0 0 0 0 0 0 0 0 0 0 0 0 0 0 127 0" result="hardAlpha"/>
<feOffset dy="-2"/>
<feGaussianBlur stdDeviation="4"/>
<feComposite in2="hardAlpha" operator="arithmetic" k2="-1" k3="1"/>
<feColorMatrix type="matrix" values="0 0 0 0 0 0 0 0 0 0 0 0 0 0 0 0 0 0 0.2 0"/>
<feBlend mode="normal" in2="effect1_innerShadow_2_150" result="effect2_innerShadow_2_150"/>
</filter>
<linearGradient id="paint0_linear_2_150" x1="19" y1="0" x2="19" y2="38" gradientUnits="userSpaceOnUse">
<stop offset="0.0001" stop-color="#FF987F"/>
<stop offset="1" stop-color="#DA5C43"/>
</linearGradient>
<linearGradient id="paint1_linear_2_150" x1="19" y1="4" x2="19" y2="34" gradientUnits="userSpaceOnUse">
<stop stop-color="#EE7057"/>
<stop offset="1" stop-color="#FF987F"/>
</linearGradient>
<linearGradient id="paint2_linear_2_150" x1="19" y1="6" x2="19" y2="32" gradientUnits="userSpaceOnUse">
<stop stop-color="white" stop-opacity="0.69"/>
<stop offset="1" stop-color="white"/>
</linearGradient>
<linearGradient id="paint3_linear_2_150" x1="19.0556" y1="11.9999" x2="19.0556" y2="25.9999" gradientUnits="userSpaceOnUse">
<stop stop-color="#FF987F"/>
<stop offset="1" stop-color="#DA5C43"/>
</linearGradient>
</defs>
</svg>
