<svg width="67" height="93" viewBox="0 0 67 93" fill="none" xmlns="http://www.w3.org/2000/svg">
<path d="M61.908 28.6154C62.5767 35.3966 60.1435 40.2031 54.6083 43.0349C58.9547 44.0781 62.2052 45.997 64.3598 48.7915C66.5145 51.5859 67.3503 55.5727 66.8674 60.7518C66.6073 63.3972 66.0037 65.726 65.0564 67.738C64.1091 69.75 62.911 71.4081 61.4623 72.7121C60.0135 74.0162 58.2118 75.1061 56.0571 75.9817C53.9025 76.8573 51.6458 77.5 49.2868 77.9099C46.9279 78.3197 44.2253 78.5992 41.1792 78.7482V93H32.5978V78.9718C29.626 78.9718 27.3599 78.9531 25.7997 78.9159V93H17.2183V78.7482C16.5497 78.7482 15.5467 78.7389 14.2093 78.7203C12.872 78.7016 11.8504 78.6923 11.1446 78.6923H0L1.72741 68.4645H7.91264C9.77007 68.4645 10.8474 67.5144 11.1446 65.6142V43.1466H12.0361C11.8132 43.1094 11.516 43.0907 11.1446 43.0907V27.0505C10.6616 24.5168 9.00852 23.25 6.18523 23.25H0V14.0841L11.8132 14.14C14.1907 14.14 15.9924 14.1214 17.2183 14.0841V0H25.7997V13.8047C28.8458 13.7302 31.1119 13.6929 32.5978 13.6929V0H41.1792V14.0841C44.1139 14.345 46.7143 14.7641 48.9803 15.3416C51.2464 15.9192 53.3453 16.7575 55.277 17.8567C57.2087 18.9558 58.7411 20.409 59.8742 22.216C61.0072 24.0231 61.6851 26.1562 61.908 28.6154ZM49.9276 59.0751C49.9276 57.7338 49.649 56.5415 49.0918 55.4982C48.5346 54.4549 47.8473 53.598 47.03 52.9273C46.2128 52.2566 45.1448 51.6884 43.826 51.2227C42.5072 50.7569 41.2906 50.4123 40.1761 50.1887C39.0617 49.9651 37.6872 49.7975 36.0527 49.6857C34.4181 49.5739 33.1365 49.518 32.2078 49.518C31.2791 49.518 30.081 49.5367 28.6137 49.5739C27.1463 49.6112 26.264 49.6298 25.9668 49.6298V68.5204C26.264 68.5204 26.9513 68.5297 28.0286 68.5484C29.1059 68.567 29.9974 68.5763 30.7033 68.5763C31.4091 68.5763 32.3935 68.5484 33.6566 68.4925C34.9196 68.4366 36.0062 68.3621 36.9164 68.2689C37.8265 68.1758 38.8852 68.0174 40.0926 67.7939C41.2999 67.5703 42.3308 67.3095 43.1852 67.0114C44.0396 66.7133 44.9219 66.3221 45.832 65.8377C46.7421 65.3534 47.4758 64.7945 48.0331 64.1611C48.5903 63.5276 49.0454 62.7825 49.3983 61.9255C49.7512 61.0685 49.9276 60.1184 49.9276 59.0751ZM45.9713 32.4718C45.9713 31.2422 45.7391 30.1523 45.2748 29.2022C44.8104 28.2521 44.2439 27.4697 43.5752 26.8549C42.9066 26.2401 42.015 25.7185 40.9005 25.29C39.7861 24.8615 38.7645 24.5541 37.8358 24.3678C36.9071 24.1815 35.7648 24.0325 34.4088 23.9207C33.0529 23.8089 31.9756 23.7623 31.1769 23.781C30.3782 23.7996 29.3752 23.8182 28.1679 23.8368C26.9606 23.8555 26.2269 23.8648 25.9668 23.8648V41.0228C26.1526 41.0228 26.7934 41.0322 27.8893 41.0508C28.9851 41.0694 29.8489 41.0694 30.4804 41.0508C31.1119 41.0322 32.0406 40.9949 33.2665 40.939C34.4924 40.8831 35.514 40.7807 36.3313 40.6316C37.1485 40.4826 38.1051 40.2776 39.201 40.0168C40.2969 39.756 41.1977 39.4114 41.9035 38.9829C42.6094 38.5544 43.2966 38.0514 43.9653 37.4739C44.634 36.8963 45.1355 36.1791 45.4698 35.3221C45.8041 34.4651 45.9713 33.515 45.9713 32.4718Z" fill="white" fill-opacity="0.25"/>
</svg>
